<svg width="408" height="791" viewBox="0 0 408 791" fill="none" xmlns="http://www.w3.org/2000/svg">
<g clip-path="url(#clip0_1_3)">
<rect x="10" y="10" width="388" height="771" rx="30" fill="white" stroke="black" stroke-width="20"/>
<path d="M4 90H404" stroke="black" stroke-width="20"/>
<path d="M4 701H404" stroke="black" stroke-width="20"/>
<path d="M160 50H248" stroke="black" stroke-width="30" stroke-linecap="round"/>
<path d="M160 741H248" stroke="black" stroke-width="30" stroke-linecap="round"/>
<rect x="189" y="177" width="30" height="30" fill="black"/>
<rect x="159" y="147" width="30" height="30" fill="black"/>
<rect x="129" y="147" width="30" height="30" fill="black"/>
<rect x="69" y="147" width="30" height="30" fill="black"/>
<rect x="39" y="147" width="30" height="30" fill="black"/>
<rect x="39" y="177" width="30" height="30" fill="black"/>
<rect x="39" y="207" width="30" height="30" fill="black"/>
<rect x="39" y="237" width="30" height="30" fill="black"/>
<rect x="99" y="147" width="30" height="30" fill="black"/>
<rect x="129" y="177" width="30" height="30" fill="black"/>
<rect x="159" y="177" width="30" height="30" fill="black"/>
<rect x="249" y="147" width="30" height="30" fill="black"/>
<rect x="279" y="147" width="30" height="30" fill="black"/>
<rect x="309" y="147" width="30" height="30" fill="black"/>
<rect x="339" y="147" width="30" height="30" fill="black"/>
<rect x="339" y="177" width="30" height="30" fill="black"/>
<rect x="339" y="207" width="30" height="30" fill="black"/>
<rect x="339" y="237" width="30" height="30" fill="black"/>
<rect x="279" y="237" width="30" height="30" fill="black"/>
<rect x="309" y="207" width="30" height="30" fill="black"/>
<rect x="339" y="297" width="30" height="30" fill="black"/>
<rect x="339" y="327" width="30" height="30" fill="black"/>
<rect x="339" y="357" width="30" height="30" fill="black"/>
<rect x="339" y="387" width="30" height="30" fill="black"/>
<rect x="309" y="357" width="30" height="30" fill="black"/>
<rect x="279" y="357" width="30" height="30" fill="black"/>
<rect x="279" y="327" width="30" height="30" fill="black"/>
<rect x="279" y="297" width="30" height="30" fill="black"/>
<rect x="249" y="297" width="30" height="30" fill="black"/>
<rect x="219" y="297" width="30" height="30" fill="black"/>
<rect x="189" y="297" width="30" height="30" fill="black"/>
<rect x="189" y="237" width="30" height="30" fill="black"/>
<rect x="159" y="237" width="30" height="30" fill="black"/>
<rect x="129" y="237" width="30" height="30" fill="black"/>
<rect x="69" y="207" width="30" height="30" fill="black"/>
<rect x="99" y="207" width="30" height="30" fill="black"/>
<rect x="99" y="177" width="30" height="30" fill="black"/>
<rect x="159" y="267" width="30" height="30" fill="black"/>
<rect x="99" y="267" width="30" height="30" fill="black"/>
<rect x="99" y="297" width="30" height="30" fill="black"/>
<rect x="99" y="327" width="30" height="30" fill="black"/>
<rect x="129" y="327" width="30" height="30" fill="black"/>
<rect x="129" y="297" width="30" height="30" fill="black"/>
<rect x="99" y="387" width="30" height="30" fill="black"/>
<rect x="99" y="357" width="30" height="30" fill="black"/>
<rect x="69" y="357" width="30" height="30" fill="black"/>
<rect x="99" y="417" width="30" height="30" fill="black"/>
<rect x="129" y="417" width="30" height="30" fill="black"/>
<rect x="159" y="417" width="30" height="30" fill="black"/>
<rect x="189" y="417" width="30" height="30" fill="black"/>
<rect x="219" y="417" width="30" height="30" fill="black"/>
<rect x="249" y="387" width="30" height="30" fill="black"/>
<rect x="219" y="357" width="30" height="30" fill="black"/>
<rect x="219" y="327" width="30" height="30" fill="black"/>
<rect x="189" y="357" width="30" height="30" fill="black"/>
<rect x="279" y="387" width="30" height="30" fill="black"/>
<rect x="279" y="417" width="30" height="30" fill="black"/>
<rect x="309" y="417" width="30" height="30" fill="black"/>
<rect x="339" y="417" width="30" height="30" fill="black"/>
<rect x="69" y="417" width="30" height="30" fill="black"/>
<rect x="39" y="417" width="30" height="30" fill="black"/>
<rect x="39" y="507" width="330" height="30" rx="15" fill="black"/>
<rect x="39" y="567" width="330" height="30" rx="15" fill="black"/>
<rect x="39" y="387" width="30" height="30" fill="black"/>
<rect x="39" y="357" width="30" height="30" fill="black"/>
<rect x="39" y="327" width="30" height="30" fill="black"/>
<rect x="39" y="297" width="30" height="30" fill="black"/>
<rect x="279" y="207" width="30" height="30" fill="black"/>
<rect x="279" y="177" width="30" height="30" fill="black"/>
<rect x="249" y="207" width="30" height="30" fill="black"/>
<rect x="249" y="237" width="30" height="30" fill="black"/>
</g>
<defs>
<clipPath id="clip0_1_3">
<rect width="408" height="791" fill="white"/>
</clipPath>
</defs>
</svg>
